# xmcd
#
# Track frame offsets: 
#        150
#        17709
#        34833
#        52411
#        69625
#        87639
#        103697
#        121370
#        135738
#        150852
#        165851
#
# Disc length: 2412 seconds
#
# Revision: 0
# Processed by: cddbd v1.5.2PL0 Copyright (c) Steve Scherf et al.
# Submitted via: ExactAudioCopyFreeDBPlugin 1.0
#
DISCID=8f096a0b
DTITLE=Marion Drexler - Labours of love
DYEAR=2015
DGENRE=Blues
TTITLE0=Remedy
TTITLE1=Into Love
TTITLE2=I Do
TTITLE3=Spinning
TTITLE4=Love Is A Losing Game
TTITLE5=Writing On The Wall
TTITLE6=Hungry Love
TTITLE7=In This House
TTITLE8=Thinking Of You
TTITLE9=Rest Of My Life
TTITLE10=Thank You
EXTD=
EXTT0=
EXTT1=
EXTT2=
EXTT3=
EXTT4=
EXTT5=
EXTT6=
EXTT7=
EXTT8=
EXTT9=
EXTT10=
PLAYORDER=
